<svg xmlns="http://www.w3.org/2000/svg" xmlns:xlink="http://www.w3.org/1999/xlink" width="328" height="556" viewBox="0 0 328 556">
  <defs>
    <style>
      .cls-1 {
        fill: #e8f6ff;
        stroke: #ff7373;
        stroke-width: 8px;
        opacity: 0.8;
      }

      .cls-2, .cls-3, .cls-4, .cls-5 {
        opacity: 0.6;
      }

      .cls-2 {
        fill: url(#linear-gradient);
      }

      .cls-3 {
        fill: url(#linear-gradient-2);
      }

      .cls-4 {
        fill: url(#linear-gradient-3);
      }

      .cls-5 {
        fill: url(#linear-gradient-4);
      }

      .cls-6 {
        fill: #6d6d6d;
        font-size: 18px;
        font-family: '\.PingFang-SC-Semibold', '\.PingFang SC';
        font-weight: 600;
      }

      .cls-7 {
        stroke: none;
      }

      .cls-8 {
        fill: none;
      }
    </style>
    <linearGradient id="linear-gradient" x1="0.826" y1="0.94" x2="0.113" y2="0.032" gradientUnits="objectBoundingBox">
      <stop offset="0" stop-color="#fbcd43"/>
      <stop offset="1" stop-color="#f3a637"/>
    </linearGradient>
    <linearGradient id="linear-gradient-2" x1="0.938" y1="0.181" x2="0.031" y2="0.879" gradientUnits="objectBoundingBox">
      <stop offset="0" stop-color="#fbcd43"/>
      <stop offset="1" stop-color="#f4ad41"/>
    </linearGradient>
    <linearGradient id="linear-gradient-3" x1="0.179" y1="0.071" x2="0.895" y2="0.966" gradientUnits="objectBoundingBox">
      <stop offset="0" stop-color="#fbcd43"/>
      <stop offset="1" stop-color="#f3a738"/>
    </linearGradient>
    <linearGradient id="linear-gradient-4" x1="0.045" y1="0.791" x2="0.971" y2="0.098" xlink:href="#linear-gradient-3"/>
  </defs>
  <g id="组_99" data-name="组 99" transform="translate(-24 -160)">
    <g id="矩形_107" data-name="矩形 107" class="cls-1" transform="translate(24 160)">
      <rect class="cls-7" width="328" height="556"/>
      <rect class="cls-8" x="4" y="4" width="320" height="548"/>
    </g>
    <g id="组_90" data-name="组 90" transform="translate(113.112 541.219)">
      <path id="路径_1" data-name="路径 1" class="cls-2" d="M179.327,199.757a6.652,6.652,0,0,1-10.086,8.381,6.662,6.662,0,0,1-2.077-3.243l-.129-.55L164.6,194.031l-.1-.4v-.012a3.324,3.324,0,0,1,5.4-3.118l.01.007.3.283,7.673,7.23.476.448A6.613,6.613,0,0,1,179.327,199.757Z" transform="translate(-41.785 -44.956)"/>
      <path id="路径_2" data-name="路径 2" class="cls-3" d="M178.865,141.347a6.652,6.652,0,0,1,8.381,10.086A6.668,6.668,0,0,1,184,153.51l-.55.129-10.314,2.437-.4.1h-.012a3.324,3.324,0,0,1-3.118-5.4l.007-.01.283-.3,7.23-7.673.448-.476A6.62,6.62,0,0,1,178.865,141.347Z" transform="translate(-44.956 -6.22)"/>
      <path id="路径_3" data-name="路径 3" class="cls-4" d="M120.454,130.76a6.652,6.652,0,0,1,10.086-8.38,6.66,6.66,0,0,1,2.077,3.243l.129.55,2.437,10.314.1.4v.012a3.324,3.324,0,0,1-5.4,3.118l-.01-.007-.3-.282L121.9,132.5l-.476-.448A6.6,6.6,0,0,1,120.454,130.76Z" transform="translate(-6.22 8)"/>
      <path id="路径_4" data-name="路径 4" class="cls-5" d="M109.867,200.219a6.652,6.652,0,1,1-5.137-12.164l.55-.129,10.314-2.437.4-.1H116a3.324,3.324,0,0,1,3.118,5.4l-.007.01-.283.3-7.23,7.673-.448.477A6.6,6.6,0,0,1,109.867,200.219Z" transform="translate(8 -41.785)"/>
    </g>
    <text id="木犀出品" class="cls-6" transform="translate(265 695)"><tspan x="0" y="0">木犀出品</tspan></text>
  </g>
</svg>
