<svg xmlns="http://www.w3.org/2000/svg" width="702" height="200.5" viewBox="0 0 702 200.5">
  <defs>
    <style>
      .cls-1 {
        fill: #fff;
      }

      .cls-2 {
        fill: #e8f6ff;
      }
    </style>
  </defs>
  <g id="组_91" data-name="组 91" transform="translate(0 -547.5)">
    <path id="交叉_1" data-name="交叉 1" class="cls-1" d="M-226.22-1.169H-45.5v.305c-4.511,2.7-39.111,22.383-89.127,22.382C-161.474,21.517-192.765,15.845-226.22-1.169Zm-169.279,0v-.353c3.83-2.645,29.445-19.319,69.779-21.978h21.835c22.752,1.475,48.939,7.722,77.665,22.331Z" transform="translate(396 571)"/>
    <rect id="矩形_99" data-name="矩形 99" class="cls-1" width="351" height="178" transform="translate(0 570)"/>
    <path id="减去_1" data-name="减去 1" class="cls-2" d="M-135.124,21.518h0c-31.178,0-61.994-7.634-91.593-22.687H-46v.305a149.117,149.117,0,0,1-27.5,12.2A191.84,191.84,0,0,1-100.735,18.4,192.17,192.17,0,0,1-135.124,21.518Z" transform="translate(397.001 571.178)"/>
    <path id="交叉_3" data-name="交叉 3" class="cls-1" d="M-226.22-1.169H-45.5v.305c-4.511,2.7-39.111,22.383-89.127,22.382C-161.474,21.517-192.765,15.845-226.22-1.169Zm-169.279,0v-.353c3.83-2.645,29.445-19.319,69.779-21.978h21.835c22.752,1.475,48.939,7.722,77.665,22.331Z" transform="translate(747 571)"/>
    <rect id="矩形_103" data-name="矩形 103" class="cls-1" width="351" height="178" transform="translate(351 570)"/>
    <path id="减去_2" data-name="减去 2" class="cls-2" d="M-135.124,21.518h0c-31.178,0-61.994-7.634-91.593-22.687H-46v.305a149.117,149.117,0,0,1-27.5,12.2A191.84,191.84,0,0,1-100.735,18.4,192.17,192.17,0,0,1-135.124,21.518Z" transform="translate(748.001 571.178)"/>
  </g>
</svg>
