<svg xmlns="http://www.w3.org/2000/svg" width="147" height="148" viewBox="0 0 147 148">
  <defs>
    <style>
      .cls-1 {
        fill: #fff;
      }
    </style>
  </defs>
  <g id="组_89" data-name="组 89" transform="translate(-135.936 -123.302)">
    <g id="组_88" data-name="组 88" transform="translate(135.936 123.302)">
      <path id="路径_62" data-name="路径 62" class="cls-1" d="M277.663,208.4l-15.318-4.148,5.331-3.092a7.068,7.068,0,0,0,3.079-9.051,7,7,0,0,0-9.837-3.168L243.273,199.2l-12.465-3.47a4.768,4.768,0,0,1-2.1-8l9.461-9.5H257.99a7.173,7.173,0,0,0,7.209-6.26,7.011,7.011,0,0,0-6.908-7.694h-6.232l10.887-10.937c2.628-2.64,3.079-7.09.526-9.88a6.9,6.9,0,0,0-10.062-.3L242,154.618v-6.186a7.185,7.185,0,0,0-6.232-7.24,7,7,0,0,0-7.66,6.939v20.44l-9.235,9.278a4.766,4.766,0,0,1-7.959-2.112l-3.454-12.9,9.837-17.2a7.242,7.242,0,0,0-2.028-9.655,7.01,7.01,0,0,0-9.837,2.338l-3.153,5.431-3.83-15.009a7.237,7.237,0,0,0-7.959-5.355,6.932,6.932,0,0,0-5.556,8.673l4.2,15.614-5.482-3.168A6.958,6.958,0,1,0,176.6,156.5l17.645,10.258,3.379,12.6a4.7,4.7,0,0,1-5.782,5.807L178.922,181.7l-9.986-17.2a6.948,6.948,0,1,0-12.164,6.712l3.154,5.431-15.243-4.073a6.951,6.951,0,0,0-8.635,5.581,7.145,7.145,0,0,0,5.256,8l15.243,4.148-5.331,3.092a7.272,7.272,0,0,0-3,9.429,6.949,6.949,0,0,0,9.611,2.866l17.646-10.257,12.54,3.394a4.768,4.768,0,0,1,2.1,8l-9.461,9.5H160.826a7.174,7.174,0,0,0-7.209,6.26,7.011,7.011,0,0,0,6.908,7.694h6.232L155.87,241.207c-2.854,2.866-3,7.694,0,10.334a6.97,6.97,0,0,0,4.655,1.81,6.8,6.8,0,0,0,4.881-2.036L176.82,239.85v6.184a7.185,7.185,0,0,0,6.232,7.241,7,7,0,0,0,7.659-6.939V225.9l9.235-9.277a4.765,4.765,0,0,1,7.959,2.112l3.455,12.973-9.912,17.273a7.15,7.15,0,0,0,1.8,9.353,6.9,6.9,0,0,0,4.055,1.357,6.986,6.986,0,0,0,6.007-3.469l3.154-5.431,4.054,15.311a6.972,6.972,0,0,0,6.684,5.2,7.6,7.6,0,0,0,2.553-.452,7.1,7.1,0,0,0,4.054-8.6l-4.054-15.311,5.481,3.168a6.959,6.959,0,1,0,7.058-11.993l-17.645-10.258-3.379-12.6a4.7,4.7,0,0,1,5.782-5.808l12.915,3.47,10.061,17.5a6.832,6.832,0,0,0,6.007,3.469,6.727,6.727,0,0,0,4.055-1.357,7.166,7.166,0,0,0,1.8-9.353l-3-5.2,15.243,4.073a7.363,7.363,0,0,0,1.8.226,7.036,7.036,0,0,0,6.908-6.26,6.819,6.819,0,0,0-5.181-7.618Zm-60.07-11.238a8.035,8.035,0,1,1-8.035-8.07,8.062,8.062,0,0,1,8.035,8.07Zm0,0" transform="translate(-135.936 -123.302)"/>
    </g>
  </g>
</svg>
