<svg xmlns="http://www.w3.org/2000/svg" xmlns:xlink="http://www.w3.org/1999/xlink" width="328" height="556" viewBox="0 0 328 556">
  <defs>
    <style>
      .cls-1, .cls-8 {
        fill: none;
      }

      .cls-1 {
        stroke: #ff7373;
        stroke-width: 8px;
        opacity: 0.8;
      }

      .cls-2, .cls-3, .cls-4, .cls-5 {
        opacity: 0.6;
      }

      .cls-2 {
        fill: url(#linear-gradient);
      }

      .cls-3 {
        fill: url(#linear-gradient-2);
      }

      .cls-4 {
        fill: url(#linear-gradient-3);
      }

      .cls-5 {
        fill: url(#linear-gradient-4);
      }

      .cls-6 {
        fill: #6d6d6d;
        font-size: 32px;
        font-family: '\.PingFang-SC-Semibold', '\.PingFang SC';
        font-weight: 600;
      }

      .cls-7 {
        stroke: none;
      }
    </style>
    <linearGradient id="linear-gradient" x1="0.826" y1="0.94" x2="0.113" y2="0.032" gradientUnits="objectBoundingBox">
      <stop offset="0" stop-color="#fbcd43"/>
      <stop offset="1" stop-color="#f3a637"/>
    </linearGradient>
    <linearGradient id="linear-gradient-2" x1="0.938" y1="0.181" x2="0.031" y2="0.879" gradientUnits="objectBoundingBox">
      <stop offset="0" stop-color="#fbcd43"/>
      <stop offset="1" stop-color="#f4ad41"/>
    </linearGradient>
    <linearGradient id="linear-gradient-3" x1="0.179" y1="0.071" x2="0.895" y2="0.966" gradientUnits="objectBoundingBox">
      <stop offset="0" stop-color="#fbcd43"/>
      <stop offset="1" stop-color="#f3a738"/>
    </linearGradient>
    <linearGradient id="linear-gradient-4" x1="0.045" y1="0.791" x2="0.971" y2="0.098" xlink:href="#linear-gradient-3"/>
  </defs>
  <g id="组_97" data-name="组 97" transform="translate(-24 -160)">
    <g id="矩形_107" data-name="矩形 107" class="cls-1" transform="translate(24 160)">
      <rect class="cls-7" width="328" height="556"/>
      <rect class="cls-8" x="4" y="4" width="320" height="548"/>
    </g>
    <g id="组_90" data-name="组 90" transform="translate(36.112 524.219)">
      <path id="路径_1" data-name="路径 1" class="cls-2" d="M186.965,204.905A10.069,10.069,0,0,1,171.7,217.59a10.082,10.082,0,0,1-3.144-4.909l-.195-.832-3.689-15.61-.145-.6v-.019a5.031,5.031,0,0,1,8.175-4.72l.016.01.451.428,11.613,10.943.721.678A10.008,10.008,0,0,1,186.965,204.905Z" transform="translate(-32.682 -35.229)"/>
      <path id="路径_2" data-name="路径 2" class="cls-3" d="M184.012,141.805A10.069,10.069,0,0,1,196.7,157.071a10.093,10.093,0,0,1-4.908,3.144l-.832.195-15.61,3.689-.6.145h-.018A5.031,5.031,0,0,1,170,156.07l.01-.016.428-.451,10.943-11.613.679-.721A10.02,10.02,0,0,1,184.012,141.805Z" transform="translate(-35.229 -3.42)"/>
      <path id="路径_3" data-name="路径 3" class="cls-4" d="M120.913,135.885A10.068,10.068,0,0,1,136.178,123.2a10.079,10.079,0,0,1,3.144,4.908l.195.832,3.689,15.61.145.6v.019a5.031,5.031,0,0,1-8.175,4.72l-.016-.01-.451-.427L123.1,138.513l-.721-.678A9.994,9.994,0,0,1,120.913,135.885Z" transform="translate(-3.42 8)"/>
      <path id="路径_4" data-name="路径 4" class="cls-5" d="M114.992,207.857a10.069,10.069,0,1,1-7.776-18.41l.832-.195,15.61-3.688.6-.145h.018a5.031,5.031,0,0,1,4.72,8.175l-.01.016-.428.451L117.62,205.672l-.679.721A9.993,9.993,0,0,1,114.992,207.857Z" transform="translate(8 -32.682)"/>
    </g>
    <text id="木犀出品" class="cls-6" transform="translate(212 693)"><tspan x="0" y="0">木犀出品</tspan></text>
  </g>
</svg>
