<svg xmlns="http://www.w3.org/2000/svg" xmlns:xlink="http://www.w3.org/1999/xlink" width="60" height="50" viewBox="0 0 60 50">
  <defs>
    <style>
      .cls-1, .cls-2, .cls-3, .cls-5 {
        fill: none;
      }

      .cls-1, .cls-3 {
        stroke: #f4ea2a;
        stroke-width: 4px;
      }

      .cls-1 {
        stroke-linejoin: round;
      }

      .cls-3 {
        stroke-linecap: round;
      }

      .cls-4, .cls-6 {
        stroke: none;
      }

      .cls-6 {
        fill: #f4ea2a;
      }

      .cls-7 {
        filter: url(#路径_64);
      }

      .cls-8 {
        filter: url(#矩形_97);
      }
    </style>
    <filter id="矩形_97" x="0" y="0" width="60" height="50" filterUnits="userSpaceOnUse">
      <feOffset dy="3" input="SourceAlpha"/>
      <feGaussianBlur stdDeviation="3" result="blur"/>
      <feFlood flood-opacity="0.161"/>
      <feComposite operator="in" in2="blur"/>
      <feComposite in="SourceGraphic"/>
    </filter>
    <filter id="路径_64" x="26" y="7" width="26" height="26" filterUnits="userSpaceOnUse">
      <feOffset dy="3" input="SourceAlpha"/>
      <feGaussianBlur stdDeviation="3" result="blur-2"/>
      <feFlood flood-opacity="0.161"/>
      <feComposite operator="in" in2="blur-2"/>
      <feComposite in="SourceGraphic"/>
    </filter>
  </defs>
  <g id="组_90" data-name="组 90" transform="translate(-558 -729)">
    <g class="cls-8" transform="matrix(1, 0, 0, 1, 558, 729)">
      <g id="矩形_97-2" data-name="矩形 97" class="cls-1" transform="translate(9 6)">
        <rect class="cls-4" width="42" height="32"/>
        <rect class="cls-5" x="2" y="2" width="38" height="28"/>
      </g>
    </g>
    <g class="cls-7" transform="matrix(1, 0, 0, 1, 558, 729)">
      <g id="路径_64-2" data-name="路径 64" class="cls-2" transform="translate(35 13)">
        <path class="cls-4" d="M4,0A4,4,0,1,1,0,4,4,4,0,0,1,4,0Z"/>
        <path class="cls-6" d="M 4 2 C 2.897200107574463 2 2 2.897200107574463 2 4 C 2 5.102799892425537 2.897200107574463 6 4 6 C 5.102799892425537 6 6 5.102799892425537 6 4 C 6 2.897200107574463 5.102799892425537 2 4 2 M 4 0 C 6.209139823913574 0 8 1.790860176086426 8 4 C 8 6.209139823913574 6.209139823913574 8 4 8 C 1.790860176086426 8 0 6.209139823913574 0 4 C 0 1.790860176086426 1.790860176086426 0 4 0 Z"/>
      </g>
    </g>
    <line id="直线_1" data-name="直线 1" class="cls-3" x1="11" y2="12" transform="translate(569.5 749.5)"/>
    <line id="直线_2" data-name="直线 2" class="cls-3" x1="14" y1="14" transform="translate(580.5 749.5)"/>
    <line id="直线_3" data-name="直线 3" class="cls-3" y1="5" x2="6" transform="translate(589.5 753.5)"/>
    <path id="路径_63" data-name="路径 63" class="cls-3" d="M0,0,2.75,2.75,11,11" transform="translate(595.5 753.5)"/>
  </g>
</svg>
